<svg xmlns="http://www.w3.org/2000/svg" xmlns:xlink="http://www.w3.org/1999/xlink" width="390.455" height="101.582" viewBox="0 0 390.455 101.582">
  <defs>
    <linearGradient id="linear-gradient" x1="-0.109" y1="-0.085" x2="0.981" y2="0.962" gradientUnits="objectBoundingBox">
      <stop offset="0" stop-color="orange"/>
      <stop offset="1" stop-color="#f94c66"/>
    </linearGradient>
  </defs>
  <g id="Group_1216" data-name="Group 1216" transform="translate(-344.344 -1398.419)">
    <path id="Path_660" data-name="Path 660" d="M122.3,487.516h5.6v13.5h-5.6q-17.357,0-28.564-11.333T82.529,461q0-17.357,11.21-28.686T122.3,420.983h45.924v3.494h-4.458v15.8h-13.5v-5.792H122.3q-11.807,0-19.043,7.352T96.028,461q0,11.816,7.233,19.165T122.3,487.516Zm50.62-31.484c-.022-.026-.045-.051-.071-.077a4.74,4.74,0,0,0-3.584-1.3h-19v9.933h13.5v-8.554Zm-30.552,31.484V488.9h21.4v-9.934h-13.5v8.554Zm77.93-33.653q-11.207-11.333-28.567-11.332h-13.08a18.968,18.968,0,0,1,9.589,13.5h3.49q11.812,0,19.046,7.352t7.233,19.165q0,11.812-7.233,19.165t-19.046,7.352H163.769v-5.792h-13.5v15.8h-4.461v3.494h45.924q17.357,0,28.567-11.33t11.21-28.686Q231.51,465.192,220.3,453.863ZM135.05,471.73a16.555,16.555,0,0,0-4.888,12.2v17.088h57.164V487.628h-2.466v3.523H140.115v-7.223a7.174,7.174,0,0,1,1.937-5.241,6.934,6.934,0,0,1,5.2-1.982h22.02a16.408,16.408,0,0,0,12.155-4.888,17.781,17.781,0,0,0,0-24.4,16.408,16.408,0,0,0-12.155-4.888H129.721v13.388h2.466V452.4h37.082a6.938,6.938,0,0,1,5.2,1.982,8.055,8.055,0,0,1,0,10.481,6.938,6.938,0,0,1-5.2,1.982h-22.02A16.552,16.552,0,0,0,135.05,471.73Z" transform="translate(261.815 977.436)" fill="url(#linear-gradient)"/>
    <path id="Path_661" data-name="Path 661" d="M495.083,485.482a14.252,14.252,0,0,1-4.034,10.4A13.771,13.771,0,0,1,480.776,500H464.763V471.59h16.013a14.312,14.312,0,0,1,10.294,3.827A13.268,13.268,0,0,1,495.083,485.482Zm-4.949.416a9.006,9.006,0,0,0-9.358-9.358h-11.1v18.508h11.1a9.3,9.3,0,0,0,6.717-2.537A8.755,8.755,0,0,0,490.133,485.9Z" transform="translate(42.701 948.425)"/>
    <path id="Path_662" data-name="Path 662" d="M579.49,499.885l-6.363-.041-4.783-7.944H554.868l2.994-4.908h7.528l-4.949-8.194-12.81,21.045h-6.363l15.43-25.662a6.649,6.649,0,0,1,1.622-1.83,3.851,3.851,0,0,1,2.246-.956,3.683,3.683,0,0,1,2.246.915,6.543,6.543,0,0,1,1.622,1.872Z" transform="translate(-1.157 948.537)"/>
    <path id="Path_663" data-name="Path 663" d="M640.631,471.59l-14.1,19.007V500h-4.908v-9.482L607.15,471.59h6.363L624.2,485.564l10.024-13.974Z" transform="translate(-38.923 948.425)"/>
    <path id="Path_664" data-name="Path 664" d="M722.223,479.409a7.189,7.189,0,0,1-2.662,5.823,9.476,9.476,0,0,1-6.2,2.038H703.132a7.08,7.08,0,0,0-3.494.832,3.2,3.2,0,0,0-1.747,2.869v4.076H721.6V500H693.4v-9.025a7.889,7.889,0,0,1,2.953-6.363,10.236,10.236,0,0,1,6.78-2.287h10.231a3.907,3.907,0,0,0,2.412-.749,2.5,2.5,0,0,0,1-2.121,2.566,2.566,0,0,0-1-2.121,3.771,3.771,0,0,0-2.412-.79H693.857V471.59h19.506a9.478,9.478,0,0,1,6.2,2.038A7.145,7.145,0,0,1,722.223,479.409Z" transform="translate(-88.366 948.425)"/>
    <path id="Path_665" data-name="Path 665" d="M806.949,485.482a14.251,14.251,0,0,1-4.034,10.4A13.77,13.77,0,0,1,792.642,500H776.629V471.59h16.013a14.311,14.311,0,0,1,10.294,3.827A13.268,13.268,0,0,1,806.949,485.482ZM802,485.9a9.006,9.006,0,0,0-9.358-9.358h-11.1v18.508h11.1a9.3,9.3,0,0,0,6.717-2.537A8.754,8.754,0,0,0,802,485.9Z" transform="translate(-136.076 948.425)"/>
    <path id="Path_666" data-name="Path 666" d="M891.355,499.885l-6.363-.041-4.783-7.944H866.734l2.994-4.908h7.528l-4.95-8.194L859.5,499.844h-6.363l15.43-25.662a6.645,6.645,0,0,1,1.622-1.83,3.85,3.85,0,0,1,2.246-.956,3.683,3.683,0,0,1,2.245.915,6.527,6.527,0,0,1,1.622,1.872Z" transform="translate(-179.931 948.537)"/>
    <path id="Path_667" data-name="Path 667" d="M952.5,471.59,938.4,490.6V500H933.49v-9.482L919.016,471.59h6.363l10.689,13.974,10.024-13.974Z" transform="translate(-217.7 948.425)"/>
    <path id="Path_668" data-name="Path 668" d="M464.763,558.734H467.7l4.6,17.866,5.079-17.866h3.083l4.837,17.806,4.626-17.806h2.962L486.771,579.8h-3.083l-4.9-16.96-5.079,16.96-3.053.03Z" transform="translate(42.701 898.47)"/>
    <path id="Path_669" data-name="Path 669" d="M568.92,570.252H558.188V579.8h-2.751V558.734h2.751v9.251H568.92v-9.251h2.751V579.8H568.92Z" transform="translate(-9.278 898.47)"/>
    <path id="Path_670" data-name="Path 670" d="M630.269,579.691a10.764,10.764,0,1,1,10.581-10.762A10.394,10.394,0,0,1,630.269,579.691Zm0-2.388c4.444,0,7.769-3.234,7.769-8.374,0-5.17-3.326-8.374-7.769-8.374s-7.769,3.2-7.769,8.374C622.5,574.069,625.825,577.3,630.269,577.3Z" transform="translate(-46.11 898.795)"/>
    <path id="Path_671" data-name="Path 671" d="M698.237,558.734v18.834h7.376V579.8H695.486V558.734Z" transform="translate(-89.561 898.47)"/>
    <path id="Path_672" data-name="Path 672" d="M755.135,560.93h-8.586v7.044h7.678v2.267h-7.678V577.5h8.586v2.267H743.8v-21.1h11.337Z" transform="translate(-117.256 898.511)"/>
    <path id="Path_673" data-name="Path 673" d="M803.716,579.651c-4.233,0-7.225-2.358-7.286-5.835h2.933c.182,1.754,1.421,3.507,4.353,3.507,2.66,0,4.232-1.512,4.232-3.507,0-5.683-11.4-2.056-11.4-9.885,0-3.477,2.811-5.834,6.983-5.834,4.02,0,6.651,2.206,6.983,5.411h-3.023c-.182-1.421-1.512-3.023-4.082-3.054-2.267-.06-4.051,1.119-4.051,3.386,0,5.442,11.367,2.056,11.367,9.855C810.729,576.689,808.28,579.651,803.716,579.651Z" transform="translate(-147.428 898.835)"/>
    <path id="Path_674" data-name="Path 674" d="M867.807,575.281h-9.19l-1.693,4.686h-2.9l7.619-20.95h3.174l7.588,20.95h-2.9Zm-4.6-12.879L859.4,573.044h7.618Z" transform="translate(-180.442 898.308)"/>
    <path id="Path_675" data-name="Path 675" d="M925.345,558.734v18.834h7.376V579.8H922.594V558.734Z" transform="translate(-219.749 898.47)"/>
    <path id="Path_676" data-name="Path 676" d="M982.243,560.93h-8.586v7.044h7.679v2.267h-7.679V577.5h8.586v2.267H970.906v-21.1h11.337Z" transform="translate(-247.444 898.511)"/>
  </g>
</svg>
